<svg id="svg" version="1.1" xmlns="http://www.w3.org/2000/svg" width="400" height="400" viewBox="0, 0, 400,400">
    <g id="svgg">
        <path id="path0"
              d="M134.532 98.586 C 113.807 105.905,101.669 123.916,104.649 142.925 C 105.100 145.801,105.097 145.822,103.725 149.016 C 102.968 150.779,102.238 152.776,102.102 153.454 C 101.702 155.457,101.368 154.896,100.815 151.291 C 97.653 130.681,84.172 118.236,63.086 116.464 C 56.463 115.907,55.944 116.764,58.418 124.169 C 64.173 141.392,76.131 152.311,92.495 155.286 C 97.961 156.280,99.100 159.567,99.495 175.488 L 99.715 184.375 91.872 184.375 C 81.742 184.375,82.813 182.655,82.813 198.933 L 82.812 211.754 83.771 212.713 C 84.722 213.664,84.792 213.672,92.170 213.672 L 99.609 213.672 99.609 222.266 L 99.609 230.859 80.469 230.859 C 59.368 230.859,59.793 230.809,59.751 233.301 C 59.742 233.784,59.749 237.651,59.765 241.895 L 59.794 249.609 55.971 249.615 C 50.183 249.624,50.391 249.198,50.391 261.064 C 50.391 269.503,50.450 270.299,51.137 271.148 L 51.884 272.070 62.647 272.070 C 76.261 272.070,74.771 273.390,74.921 261.196 C 75.069 249.168,75.275 249.609,69.503 249.609 L 65.625 249.609 65.625 243.164 L 65.625 236.719 82.617 236.719 L 99.609 236.719 99.609 243.164 L 99.609 249.609 95.764 249.609 C 90.181 249.609,90.458 249.068,90.311 260.260 C 90.141 273.225,89.144 272.266,102.778 272.266 L 112.536 272.266 113.494 271.307 L 114.453 270.348 114.453 260.760 C 114.453 248.996,114.743 249.609,109.180 249.609 L 105.469 249.609 105.469 243.164 L 105.469 236.719 122.461 236.719 L 139.453 236.719 139.453 243.164 L 139.453 249.609 135.575 249.609 C 129.867 249.609,130.078 249.173,130.078 260.947 C 130.078 269.501,130.136 270.298,130.825 271.148 L 131.572 272.070 142.383 272.070 L 153.194 272.070 153.941 271.148 C 154.630 270.296,154.687 269.497,154.688 260.699 C 154.688 248.925,155.036 249.609,149.039 249.609 L 144.952 249.609 144.938 240.933 C 144.926 233.660,144.827 232.160,144.323 231.656 C 143.802 231.134,141.192 231.040,124.596 230.946 L 105.469 230.838 105.469 222.255 L 105.469 213.672 112.643 213.672 C 119.309 213.672,119.889 213.615,120.846 212.862 L 121.875 212.053 121.875 199.082 C 121.875 182.702,122.823 184.377,113.552 184.369 C 109.643 184.366,106.200 184.208,105.901 184.018 C 104.996 183.446,105.562 164.595,106.623 159.961 C 108.347 152.428,110.085 148.441,111.649 148.431 C 113.129 148.422,120.202 145.284,123.388 143.223 C 133.662 136.577,140.735 124.893,142.741 111.254 C 144.913 96.486,144.087 95.211,134.532 98.586 M137.708 105.957 C 136.089 123.428,128.504 135.478,115.531 141.187 L 113.289 142.174 115.602 138.568 C 116.875 136.584,119.484 132.764,121.401 130.078 C 125.437 124.424,125.658 123.916,124.803 122.263 C 124.250 121.193,124.005 121.063,122.737 121.169 C 121.191 121.298,120.456 122.219,112.349 134.180 L 109.702 138.086 109.980 135.156 C 111.321 121.027,119.915 110.382,135.063 104.089 C 138.097 102.829,138.003 102.763,137.708 105.957 M70.496 123.458 C 80.032 125.959,87.886 131.972,91.596 139.614 C 94.785 146.182,94.469 146.289,88.759 140.580 C 83.437 135.258,82.247 134.606,80.692 136.161 C 79.378 137.475,79.906 139.180,82.324 141.427 C 83.560 142.575,85.990 144.860,87.725 146.505 L 90.880 149.497 88.598 148.806 C 78.123 145.634,69.937 137.698,64.840 125.774 L 63.296 122.160 65.339 122.401 C 66.463 122.533,68.784 123.009,70.496 123.458 M174.449 152.635 C 174.322 152.761,174.219 164.964,174.219 179.753 L 174.219 206.641 178.711 206.641 L 183.203 206.641 183.203 197.461 L 183.203 188.281 190.137 188.275 C 194.937 188.271,197.840 188.088,199.573 187.680 C 217.439 183.468,217.677 158.465,199.900 153.231 C 197.831 152.622,174.996 152.087,174.449 152.635 M218.569 152.655 C 218.454 152.770,218.359 164.964,218.359 179.753 L 218.359 206.641 222.854 206.641 L 227.349 206.641 227.249 179.631 L 227.148 152.622 222.964 152.534 C 220.662 152.485,218.684 152.540,218.569 152.655 M326.172 162.695 L 326.172 167.578 322.461 167.578 L 318.750 167.578 318.750 171.094 L 318.750 174.609 322.436 174.609 L 326.123 174.609 326.245 187.207 C 326.394 202.572,326.608 203.313,331.641 205.914 C 333.608 206.931,340.004 207.422,342.578 206.754 L 343.945 206.399 344.169 202.711 C 344.292 200.683,344.380 198.999,344.364 198.969 C 344.349 198.939,343.328 199.100,342.097 199.326 C 335.733 200.495,335.160 199.346,335.158 185.421 L 335.156 174.553 337.207 174.614 C 338.335 174.648,340.444 174.661,341.895 174.643 L 344.531 174.609 344.531 171.094 L 344.531 167.578 339.844 167.578 L 335.156 167.578 335.156 162.695 L 335.156 157.813 330.664 157.813 L 326.172 157.813 326.172 162.695 M197.154 161.179 C 202.331 162.930,204.633 167.833,202.967 173.561 C 201.415 178.901,198.899 180.225,189.961 180.400 L 183.242 180.533 183.231 170.540 L 183.220 160.547 189.253 160.547 C 193.781 160.547,195.751 160.705,197.154 161.179 M247.070 167.534 C 241.260 169.223,237.566 173.123,236.854 178.320 L 236.609 180.103 241.425 179.993 L 246.241 179.883 246.588 178.516 C 248.623 170.499,261.328 173.031,261.328 181.453 L 261.328 183.594 255.762 183.601 C 243.636 183.618,237.826 186.055,235.811 191.967 C 231.531 204.529,249.696 213.189,259.961 203.481 L 262.109 201.449 262.109 204.045 L 262.109 206.641 266.232 206.641 L 270.355 206.641 270.227 191.699 C 270.084 175.103,270.023 174.680,267.315 171.513 C 263.778 167.376,254.134 165.480,247.070 167.534 M295.293 167.304 C 292.381 168.130,289.593 170.199,288.345 172.461 C 287.998 173.090,287.912 172.691,287.903 170.410 L 287.891 167.578 283.398 167.578 L 278.906 167.578 278.906 187.109 L 278.906 206.641 283.398 206.641 L 287.891 206.641 287.891 195.136 C 287.891 182.366,288.123 180.468,289.983 178.029 C 293.699 173.157,301.665 173.537,304.285 178.711 L 305.273 180.664 305.273 193.652 L 305.273 206.639 309.863 206.640 L 314.453 206.641 314.450 193.848 C 314.446 176.721,313.924 174.007,309.924 170.320 C 306.555 167.214,300.218 165.908,295.293 167.304 M116.406 198.633 L 116.406 207.813 102.734 207.813 C 95.215 207.813,88.931 207.856,88.770 207.910 C 88.463 208.012,88.185 190.794,88.479 189.941 C 88.609 189.563,91.773 189.453,102.527 189.453 L 116.406 189.453 116.406 198.633 M261.320 191.895 C 261.282 200.934,246.326 204.561,244.706 195.924 C 243.898 191.618,247.006 189.844,255.356 189.844 L 261.328 189.844 261.320 191.895 M191.044 215.608 C 190.651 215.850,188.962 220.236,182.461 237.891 C 181.868 239.502,180.194 244.051,178.742 248.000 C 175.914 255.688,171.394 267.723,170.913 268.848 C 170.642 269.479,171.010 269.531,175.704 269.531 L 180.789 269.531 181.820 266.504 C 182.387 264.839,183.379 261.848,184.024 259.857 L 185.197 256.238 195.791 256.341 L 206.386 256.445 208.564 262.987 L 210.742 269.529 215.764 269.530 C 220.393 269.531,220.765 269.478,220.511 268.848 C 220.359 268.472,219.655 266.582,218.947 264.648 C 218.239 262.715,215.722 255.947,213.354 249.609 C 210.985 243.271,208.145 235.625,207.041 232.617 C 205.937 229.609,204.361 225.391,203.538 223.242 C 202.716 221.094,201.824 218.633,201.557 217.773 C 200.768 215.239,200.740 215.227,195.898 215.278 C 193.480 215.303,191.296 215.452,191.044 215.608 M292.188 242.383 L 292.188 269.531 296.680 269.531 L 301.172 269.531 301.172 257.493 C 301.172 243.301,301.329 242.366,304.123 239.906 C 307.864 236.613,313.893 236.820,316.543 240.332 C 318.194 242.519,318.355 244.009,318.357 257.129 L 318.359 269.531 322.873 269.531 L 327.387 269.531 327.264 254.980 C 327.125 238.512,327.024 237.903,323.838 234.283 C 318.883 228.654,306.761 228.670,302.458 234.312 L 301.172 235.998 301.172 225.616 L 301.172 215.234 296.680 215.234 L 292.188 215.234 292.188 242.383 M198.367 233.105 C 199.716 237.134,201.496 242.319,202.321 244.629 L 203.822 248.828 202.204 248.823 C 201.314 248.820,197.661 248.892,194.087 248.984 L 187.588 249.150 190.310 241.274 C 191.807 236.943,193.573 231.685,194.236 229.590 C 194.898 227.495,195.547 225.781,195.677 225.781 C 195.807 225.781,197.018 229.077,198.367 233.105 M264.888 230.110 C 246.215 232.529,243.092 262.211,260.796 268.998 C 271.906 273.258,283.497 267.906,286.081 257.324 L 286.343 256.250 281.862 256.250 L 277.380 256.250 276.590 258.037 C 276.077 259.195,275.638 259.723,275.340 259.539 C 275.076 259.376,274.983 259.422,275.121 259.645 C 275.859 260.839,271.867 262.965,268.835 262.994 C 260.835 263.069,256.351 254.219,259.395 244.363 C 261.994 235.949,273.427 234.629,276.395 242.401 L 277.059 244.141 281.550 244.141 L 286.040 244.141 285.825 242.532 C 284.658 233.836,275.959 228.675,264.888 230.110 M240.311 230.819 C 237.944 231.637,236.239 233.098,235.023 235.352 L 234.180 236.914 234.066 233.887 L 233.952 230.859 229.573 230.859 L 225.195 230.859 225.195 250.195 L 225.195 269.531 229.560 269.531 L 233.924 269.531 234.058 257.715 C 234.175 247.456,234.283 245.695,234.882 244.357 C 236.743 240.194,239.352 238.536,243.992 238.564 L 246.773 238.582 247.019 236.226 C 247.155 234.930,247.266 233.017,247.266 231.974 L 247.266 230.078 244.824 230.091 C 243.481 230.098,241.450 230.426,240.311 230.819 M69.531 260.938 L 69.531 266.406 62.891 266.406 L 56.250 266.406 56.250 260.938 L 56.250 255.469 62.891 255.469 L 69.531 255.469 69.531 260.938 M108.984 260.938 L 108.984 266.406 102.539 266.406 L 96.094 266.406 96.094 260.938 L 96.094 255.469 102.539 255.469 L 108.984 255.469 108.984 260.938 M149.219 260.938 L 149.219 266.406 142.578 266.406 L 135.938 266.406 135.938 260.938 L 135.938 255.469 142.578 255.469 L 149.219 255.469 149.219 260.938 "
              stroke="none" fill="#1b4325" fill-rule="evenodd"/>
        <path id="path1"
              d="M139.453 96.637 C 139.453 96.721,140.056 96.860,140.793 96.946 C 141.530 97.032,142.047 96.963,141.942 96.793 C 141.753 96.488,139.453 96.343,139.453 96.637 M124.902 102.567 C 123.442 103.359,123.531 103.689,125.000 102.930 C 125.645 102.596,126.172 102.240,126.172 102.138 C 126.172 101.887,126.130 101.901,124.902 102.567 M135.063 104.089 C 119.915 110.382,111.321 121.027,109.980 135.156 L 109.702 138.086 112.349 134.180 C 120.456 122.219,121.191 121.298,122.737 121.169 C 124.005 121.063,124.250 121.193,124.803 122.263 C 125.658 123.916,125.437 124.424,121.401 130.078 C 119.484 132.764,116.875 136.584,115.602 138.568 L 113.289 142.174 115.531 141.187 C 128.504 135.478,136.089 123.428,137.708 105.957 C 138.003 102.763,138.097 102.829,135.063 104.089 M143.466 105.469 C 143.466 106.436,143.542 106.831,143.635 106.348 C 143.728 105.864,143.728 105.073,143.635 104.590 C 143.542 104.106,143.466 104.502,143.466 105.469 M117.733 107.205 C 117.755 107.644,117.568 108.005,117.318 108.006 C 117.067 108.007,116.759 108.110,116.634 108.236 C 116.509 108.361,116.665 108.464,116.981 108.464 C 117.298 108.464,118.000 108.001,118.542 107.435 L 119.528 106.406 118.610 106.406 C 117.933 106.406,117.703 106.616,117.733 107.205 M61.328 116.043 L 59.570 116.289 61.816 116.348 C 63.052 116.380,64.063 116.337,64.063 116.253 C 64.063 115.897,62.972 115.813,61.328 116.043 M57.715 116.438 C 57.339 116.657,57.034 117.047,57.037 117.305 C 57.041 117.629,57.132 117.643,57.330 117.349 C 57.488 117.116,57.969 116.726,58.398 116.482 C 58.828 116.239,59.004 116.039,58.789 116.039 C 58.574 116.039,58.091 116.219,57.715 116.438 M64.840 125.774 C 69.937 137.698,78.123 145.634,88.598 148.806 L 90.880 149.497 87.725 146.505 C 85.990 144.860,83.560 142.575,82.324 141.427 C 79.906 139.180,79.378 137.475,80.692 136.161 C 82.247 134.606,83.437 135.258,88.759 140.580 C 94.469 146.289,94.785 146.182,91.596 139.614 C 87.235 130.632,76.729 123.744,65.339 122.401 L 63.296 122.160 64.840 125.774 M88.518 126.105 C 88.407 126.284,89.320 127.382,90.545 128.547 L 92.773 130.664 90.713 128.493 C 89.579 127.299,88.773 126.201,88.922 126.052 C 89.071 125.903,89.086 125.781,88.955 125.781 C 88.825 125.781,88.628 125.927,88.518 126.105 M60.006 129.906 C 59.864 130.277,59.839 130.673,59.952 130.785 C 60.064 130.898,60.159 130.741,60.162 130.436 C 60.167 129.981,60.235 129.986,60.547 130.469 C 60.755 130.791,60.926 130.879,60.926 130.664 C 60.926 129.751,60.272 129.213,60.006 129.906 M62.610 136.062 C 62.749 136.781,63.438 137.370,64.141 137.370 C 64.721 137.370,64.733 137.279,64.244 136.580 C 63.641 135.720,62.472 135.349,62.610 136.062 M104.023 137.891 C 104.023 139.072,104.097 139.556,104.186 138.965 C 104.276 138.374,104.276 137.407,104.186 136.816 C 104.097 136.226,104.023 136.709,104.023 137.891 M129.674 138.184 L 127.539 140.430 129.785 138.295 C 131.872 136.311,132.210 135.938,131.920 135.938 C 131.859 135.938,130.848 136.948,129.674 138.184 M103.441 142.383 C 103.529 143.135,103.670 143.750,103.754 143.750 C 103.838 143.750,103.906 143.135,103.906 142.383 C 103.906 141.631,103.766 141.016,103.594 141.016 C 103.422 141.016,103.354 141.631,103.441 142.383 M67.708 141.972 C 67.708 142.305,67.797 142.490,67.904 142.382 C 68.181 142.106,69.550 143.403,69.341 143.742 C 69.246 143.896,69.670 144.502,70.284 145.089 C 70.897 145.677,71.498 145.998,71.619 145.802 C 71.740 145.606,70.910 144.528,69.774 143.406 C 68.524 142.171,67.708 141.605,67.708 141.972 M104.388 142.969 C 104.388 143.721,104.468 144.028,104.566 143.652 C 104.664 143.276,104.664 142.661,104.566 142.285 C 104.468 141.909,104.388 142.217,104.388 142.969 M104.741 145.183 C 104.711 145.649,104.586 146.352,104.463 146.745 C 104.250 147.423,104.262 147.424,104.684 146.766 C 104.929 146.384,105.054 145.681,104.962 145.204 C 104.794 144.337,104.794 144.337,104.741 145.183 M72.424 146.545 C 72.262 146.807,72.315 146.890,72.552 146.744 C 72.974 146.483,73.967 147.387,73.629 147.725 C 73.524 147.830,73.704 147.917,74.030 147.917 C 74.485 147.917,74.424 147.704,73.767 147.005 C 72.774 145.949,72.789 145.954,72.424 146.545 M75.130 148.591 C 75.130 148.915,75.386 149.066,75.749 148.954 C 76.189 148.819,76.149 148.942,75.609 149.382 C 75.192 149.722,75.050 150.000,75.293 150.000 C 75.536 150.000,75.855 149.805,76.002 149.568 C 76.189 149.266,76.381 149.295,76.641 149.665 C 76.949 150.104,76.987 150.100,76.864 149.643 C 76.634 148.790,75.130 147.877,75.130 148.591 M78.936 151.154 C 78.561 151.385,78.578 151.503,79.007 151.667 C 79.313 151.785,79.782 151.746,80.049 151.581 C 80.423 151.349,80.407 151.232,79.978 151.067 C 79.672 150.950,79.203 150.989,78.936 151.154 M101.562 151.760 C 101.043 153.124,101.066 154.688,101.605 154.688 C 101.875 154.688,101.943 154.309,101.785 153.678 C 101.615 153.002,101.671 152.755,101.953 152.930 C 102.237 153.105,102.295 152.827,102.132 152.084 C 101.947 151.236,101.988 151.114,102.306 151.563 C 102.563 151.924,102.725 151.970,102.728 151.683 C 102.741 150.721,101.937 150.774,101.562 151.760 M173.270 152.637 C 173.465 152.798,173.733 153.076,173.867 153.255 C 174.001 153.435,174.217 153.303,174.347 152.962 C 174.518 152.517,174.351 152.344,173.751 152.344 C 173.292 152.344,173.076 152.476,173.270 152.637 M195.025 152.624 C 195.619 152.714,196.498 152.711,196.978 152.619 C 197.458 152.526,196.973 152.453,195.898 152.455 C 194.824 152.458,194.431 152.534,195.025 152.624 M217.963 171.582 C 217.959 184.147,217.825 190.617,217.578 190.234 C 217.301 189.806,217.208 190.068,217.232 191.211 C 217.261 192.566,217.307 192.644,217.578 191.797 C 217.758 191.234,217.907 194.255,217.930 198.926 C 217.951 203.384,218.101 207.031,218.262 207.031 C 218.423 207.031,218.555 194.727,218.555 179.688 C 218.555 164.648,218.423 152.344,218.262 152.344 C 218.101 152.344,217.966 161.001,217.963 171.582 M92.578 155.877 C 92.150 156.167,92.308 156.203,93.164 156.012 C 94.600 155.690,94.912 155.467,93.913 155.475 C 93.501 155.478,92.900 155.659,92.578 155.877 M227.465 157.617 C 227.467 158.906,227.540 159.387,227.627 158.684 C 227.714 157.982,227.712 156.928,227.623 156.341 C 227.534 155.754,227.463 156.328,227.465 157.617 M207.264 156.581 C 207.151 156.763,207.624 157.422,208.315 158.046 L 209.570 159.180 208.491 157.981 C 207.897 157.321,207.531 156.662,207.677 156.516 C 207.823 156.370,207.836 156.250,207.705 156.250 C 207.575 156.250,207.376 156.399,207.264 156.581 M326.373 156.631 C 326.286 156.772,327.100 156.907,328.182 156.931 C 329.265 156.954,330.061 156.884,329.953 156.776 C 329.645 156.468,326.551 156.343,326.373 156.631 M331.738 156.910 C 332.114 157.008,332.729 157.008,333.105 156.910 C 333.481 156.812,333.174 156.731,332.422 156.731 C 331.670 156.731,331.362 156.812,331.738 156.910 M325.006 158.105 C 325.010 158.619,325.093 158.662,325.336 158.278 C 325.583 157.889,326.850 157.795,330.605 157.887 C 333.324 157.953,335.548 157.876,335.548 157.715 C 335.547 157.554,333.174 157.422,330.273 157.422 C 325.509 157.422,325.001 157.488,325.006 158.105 M183.271 162.402 L 183.340 164.258 183.489 162.607 L 183.638 160.957 189.768 160.839 L 195.898 160.721 189.551 160.634 L 183.203 160.547 183.271 162.402 M227.507 169.531 C 227.507 173.721,227.565 175.435,227.635 173.340 C 227.705 171.245,227.705 167.817,227.635 165.723 C 227.565 163.628,227.507 165.342,227.507 169.531 M200.251 162.891 C 200.488 163.213,200.619 163.869,200.540 164.349 C 200.432 165.011,200.631 165.280,201.368 165.465 C 201.907 165.600,202.226 165.890,202.085 166.118 C 201.938 166.357,202.020 166.411,202.284 166.248 C 202.977 165.819,202.056 164.330,201.282 164.627 C 200.801 164.812,200.765 164.748,201.115 164.326 C 201.460 163.910,201.365 163.624,200.689 163.048 C 200.210 162.639,200.013 162.568,200.251 162.891 M325.193 162.894 C 325.059 163.111,325.068 163.661,325.213 164.118 C 325.420 164.770,325.549 164.831,325.818 164.407 C 326.314 163.624,326.248 163.190,325.684 163.528 C 325.352 163.728,325.367 163.610,325.731 163.161 C 326.049 162.770,326.098 162.500,325.852 162.500 C 325.624 162.500,325.327 162.677,325.193 162.894 M105.966 164.453 C 105.966 165.420,106.042 165.815,106.135 165.332 C 106.228 164.849,106.228 164.058,106.135 163.574 C 106.042 163.091,105.966 163.486,105.966 164.453 M183.336 172.070 C 183.313 176.367,183.375 179.573,183.473 179.194 C 183.572 178.816,183.815 178.606,184.014 178.729 C 184.213 178.852,184.375 178.766,184.375 178.539 C 184.375 178.311,184.203 178.125,183.993 178.125 C 183.764 178.125,183.565 175.365,183.495 171.191 L 183.379 164.258 183.336 172.070 M325.500 166.197 C 325.124 166.624,325.124 166.781,325.500 166.933 C 325.762 167.039,324.263 167.140,322.168 167.157 L 318.359 167.188 318.339 168.457 C 318.328 169.155,318.285 170.913,318.242 172.363 L 318.164 175.000 322.266 174.918 L 326.367 174.836 322.559 174.709 L 318.750 174.581 318.750 171.080 L 318.750 167.578 322.461 167.578 C 326.159 167.578,326.172 167.575,326.172 166.602 C 326.172 165.481,326.144 165.464,325.500 166.197 M251.869 166.695 C 253.004 166.774,254.762 166.773,255.775 166.693 C 256.788 166.613,255.859 166.548,253.711 166.549 C 251.563 166.550,250.733 166.616,251.869 166.695 M298.737 166.689 C 299.440 166.776,300.494 166.774,301.081 166.685 C 301.668 166.596,301.094 166.525,299.805 166.527 C 298.516 166.529,298.035 166.602,298.737 166.689 M335.765 167.005 C 335.085 167.519,335.498 167.578,339.769 167.578 L 344.531 167.578 344.531 171.094 L 344.531 174.609 341.969 174.609 C 340.560 174.609,339.488 174.741,339.587 174.902 C 339.686 175.063,340.933 175.136,342.358 175.064 L 344.949 174.932 344.838 171.157 L 344.727 167.383 340.430 167.271 C 337.532 167.195,336.324 167.038,336.719 166.789 C 337.041 166.585,337.129 166.421,336.914 166.425 C 336.699 166.428,336.182 166.689,335.765 167.005 M173.592 168.846 C 173.707 170.017,173.607 170.724,173.310 170.845 C 173.058 170.948,173.157 171.046,173.530 171.063 C 174.189 171.093,174.270 167.890,173.628 167.248 C 173.510 167.130,173.494 167.850,173.592 168.846 M278.486 167.480 C 278.470 167.642,278.433 172.300,278.404 177.832 C 278.375 183.364,278.206 187.891,278.029 187.891 C 277.852 187.891,277.857 188.198,278.040 188.574 C 278.223 188.950,278.361 193.169,278.346 197.949 C 278.332 202.729,278.463 206.641,278.636 206.641 C 278.810 206.641,278.851 206.804,278.728 207.004 C 278.604 207.204,278.709 207.495,278.960 207.651 C 279.233 207.819,279.313 207.765,279.159 207.516 C 279.018 207.286,279.122 207.009,279.392 206.900 C 279.782 206.743,279.783 206.696,279.395 206.671 C 279.011 206.647,278.906 202.460,278.906 187.122 L 278.906 167.603 283.496 167.479 L 288.086 167.355 283.301 167.271 C 280.669 167.225,278.502 167.319,278.486 167.480 M105.554 175.642 C 105.453 185.443,104.466 184.375,113.626 184.375 C 118.089 184.375,120.698 184.526,120.972 184.800 C 121.277 185.105,121.471 185.103,121.665 184.790 C 121.812 184.551,121.788 184.388,121.611 184.427 C 121.434 184.467,121.025 184.385,120.703 184.245 C 120.381 184.105,116.953 183.945,113.086 183.890 L 106.055 183.789 105.847 175.586 L 105.640 167.383 105.554 175.642 M213.025 170.508 C 213.026 172.227,213.095 172.881,213.177 171.962 C 213.260 171.044,213.259 169.637,213.175 168.837 C 213.091 168.037,213.023 168.789,213.025 170.508 M203.246 170.117 C 203.248 171.406,203.321 171.887,203.408 171.184 C 203.495 170.482,203.493 169.428,203.404 168.841 C 203.315 168.254,203.244 168.828,203.246 170.117 M307.813 168.435 C 310.131 170.592,311.746 171.862,310.610 170.636 C 309.826 169.789,309.480 169.145,309.741 169.019 C 309.993 168.897,309.966 168.856,309.678 168.922 C 309.404 168.984,308.828 168.859,308.398 168.644 C 307.969 168.429,307.705 168.335,307.813 168.435 M290.000 169.049 C 289.764 169.207,289.574 169.644,289.577 170.021 C 289.583 170.658,289.634 170.661,290.290 170.067 C 291.160 169.280,290.919 168.435,290.000 169.049 M99.153 171.219 C 99.069 171.933,99.121 172.943,99.266 173.465 C 99.445 174.105,99.544 173.682,99.570 172.168 C 99.613 169.696,99.390 169.188,99.153 171.219 M251.595 173.988 C 251.898 174.285,255.043 174.384,255.322 174.105 C 255.474 173.953,254.661 173.828,253.516 173.828 C 252.370 173.828,251.506 173.900,251.595 173.988 M296.003 174.892 C 296.705 174.979,297.760 174.978,298.347 174.888 C 298.934 174.799,298.359 174.728,297.070 174.730 C 295.781 174.733,295.301 174.806,296.003 174.892 M336.035 174.889 C 336.626 174.979,337.593 174.979,338.184 174.889 C 338.774 174.800,338.291 174.726,337.109 174.726 C 335.928 174.726,335.444 174.800,336.035 174.889 M99.355 178.125 C 99.355 179.951,99.423 180.698,99.505 179.785 C 99.587 178.872,99.587 177.378,99.505 176.465 C 99.423 175.552,99.355 176.299,99.355 178.125 M325.012 175.891 C 325.042 177.010,326.172 177.968,326.172 176.874 C 326.172 176.319,325.908 175.764,325.586 175.640 C 325.260 175.515,325.006 175.627,325.012 175.891 M211.189 178.825 C 210.701 179.897,210.681 180.070,211.111 179.492 C 211.431 179.063,211.872 178.501,212.092 178.243 C 212.312 177.986,212.347 177.686,212.170 177.576 C 211.993 177.467,211.551 178.029,211.189 178.825 M227.442 178.711 C 227.447 179.570,227.527 179.876,227.620 179.390 C 227.713 178.904,227.710 178.201,227.612 177.827 C 227.514 177.454,227.438 177.852,227.442 178.711 M314.153 178.906 C 314.153 179.658,314.234 179.966,314.332 179.590 C 314.430 179.214,314.430 178.599,314.332 178.223 C 314.234 177.847,314.153 178.154,314.153 178.906 M173.775 178.809 C 173.745 179.185,173.701 180.195,173.677 181.055 C 173.653 181.914,173.491 182.837,173.317 183.105 C 173.130 183.393,173.180 183.594,173.438 183.594 C 173.678 183.594,173.798 183.726,173.705 183.887 C 173.612 184.048,173.672 184.531,173.839 184.961 C 174.016 185.416,174.141 184.152,174.137 181.934 C 174.130 178.592,173.928 176.844,173.775 178.809 M236.287 179.903 C 236.128 180.893,236.231 181.106,236.890 181.156 C 237.531 181.204,237.572 181.144,237.104 180.848 C 236.723 180.607,238.158 180.479,241.286 180.475 C 243.905 180.471,246.130 180.337,246.230 180.176 C 246.330 180.015,244.246 179.937,241.598 180.002 C 237.219 180.111,236.771 180.058,236.632 179.416 C 236.532 178.957,236.412 179.127,236.287 179.903 M261.044 180.469 C 261.044 181.436,261.120 181.831,261.213 181.348 C 261.306 180.864,261.306 180.073,261.213 179.590 C 261.120 179.106,261.044 179.502,261.044 180.469 M270.312 192.852 C 270.205 200.629,270.251 206.859,270.415 206.694 C 270.579 206.530,270.667 200.167,270.610 192.554 L 270.507 178.711 270.312 192.852 M303.590 180.124 C 304.030 181.386,304.498 181.670,304.189 180.487 C 304.079 180.068,304.186 179.659,304.426 179.579 C 304.666 179.499,304.488 179.336,304.030 179.216 C 303.263 179.016,303.229 179.087,303.590 180.124 M227.350 185.775 C 227.353 188.765,227.499 190.985,227.674 190.709 C 227.981 190.225,227.822 180.833,227.501 180.501 C 227.415 180.412,227.346 182.785,227.350 185.775 M325.488 181.053 C 324.834 181.796,324.872 182.741,325.586 183.454 C 326.107 183.975,326.172 183.842,326.172 182.254 C 326.172 180.271,326.174 180.274,325.488 181.053 M260.149 182.208 C 260.503 183.139,260.457 183.169,258.479 183.311 C 256.489 183.454,256.496 183.458,258.822 183.466 C 260.558 183.473,261.198 183.333,261.198 182.948 C 261.198 182.659,261.051 182.422,260.872 182.422 C 260.693 182.422,260.547 182.158,260.547 181.836 C 260.547 181.514,260.375 181.250,260.166 181.250 C 259.923 181.250,259.917 181.597,260.149 182.208 M207.983 183.301 L 206.836 184.570 208.105 183.423 C 208.804 182.792,209.375 182.221,209.375 182.153 C 209.375 181.852,209.053 182.117,207.983 183.301 M287.997 184.375 C 287.997 185.342,288.073 185.737,288.166 185.254 C 288.259 184.771,288.259 183.979,288.166 183.496 C 288.073 183.013,287.997 183.408,287.997 184.375 M305.252 194.531 C 305.252 201.084,305.305 203.765,305.370 200.488 C 305.436 197.212,305.436 191.851,305.370 188.574 C 305.305 185.298,305.252 187.979,305.252 194.531 M99.219 183.585 C 99.219 183.817,96.263 184.013,91.699 184.083 L 84.180 184.198 91.895 184.286 C 98.531 184.363,99.609 184.293,99.609 183.789 C 99.609 183.467,99.521 183.203,99.414 183.203 C 99.307 183.203,99.219 183.375,99.219 183.585 M247.363 183.863 C 247.739 183.961,248.354 183.961,248.730 183.863 C 249.106 183.765,248.799 183.684,248.047 183.684 C 247.295 183.684,246.987 183.765,247.363 183.863 M325.000 185.547 C 325.000 186.191,325.176 186.719,325.391 186.719 C 325.605 186.719,325.781 186.905,325.781 187.132 C 325.781 187.360,325.605 187.437,325.391 187.305 C 325.176 187.172,325.000 187.348,325.000 187.695 C 325.000 188.043,325.176 188.219,325.391 188.086 C 325.605 187.953,325.781 188.119,325.781 188.454 C 325.781 188.788,325.584 189.063,325.343 189.063 C 325.029 189.063,325.023 189.206,325.323 189.567 C 325.553 189.845,325.804 191.295,325.880 192.790 C 325.957 194.285,326.053 193.003,326.095 189.941 C 326.160 185.220,326.083 184.375,325.586 184.375 C 325.195 184.375,325.000 184.766,325.000 185.547 M173.344 186.164 C 173.218 186.367,173.357 186.970,173.653 187.505 C 173.949 188.039,174.185 188.213,174.177 187.891 C 174.155 186.934,173.591 185.765,173.344 186.164 M217.286 188.086 C 217.290 188.945,217.370 189.251,217.464 188.765 C 217.557 188.279,217.554 187.576,217.456 187.202 C 217.358 186.829,217.282 187.227,217.286 188.086 M238.675 187.300 C 238.410 187.620,237.993 187.768,237.749 187.628 C 237.504 187.489,237.435 187.519,237.594 187.694 C 237.754 187.870,237.672 188.294,237.414 188.636 C 237.155 188.978,237.508 188.742,238.199 188.111 C 238.889 187.479,239.453 186.908,239.453 186.841 C 239.453 186.563,239.129 186.754,238.675 187.300 M81.836 187.799 C 81.257 188.225,81.279 189.916,81.861 189.693 C 82.235 189.549,82.355 191.886,82.399 200.109 C 82.430 205.940,82.536 210.791,82.634 210.889 C 82.732 210.987,82.813 205.765,82.813 199.284 C 82.813 192.803,82.681 187.503,82.520 187.506 C 82.358 187.509,82.051 187.641,81.836 187.799 M183.119 197.694 C 183.058 202.871,183.144 207.191,183.310 207.293 C 183.477 207.396,183.588 207.335,183.557 207.158 C 183.297 205.659,183.667 197.265,183.984 197.461 C 184.199 197.594,184.375 197.516,184.375 197.289 C 184.375 197.061,184.199 196.875,183.984 196.875 C 183.042 196.875,183.520 188.740,184.473 188.557 C 185.236 188.410,185.212 188.381,184.291 188.334 L 183.230 188.281 183.119 197.694 M187.808 188.571 C 189.159 188.647,191.269 188.647,192.496 188.569 C 193.723 188.492,192.617 188.430,190.039 188.430 C 187.461 188.431,186.457 188.494,187.808 188.571 M88.479 189.941 C 88.185 190.794,88.463 208.012,88.770 207.910 C 88.931 207.856,95.215 207.813,102.734 207.813 L 116.406 207.813 116.406 198.633 L 116.406 189.453 102.527 189.453 C 91.773 189.453,88.609 189.563,88.479 189.941 M249.275 190.030 C 249.648 190.404,253.056 190.662,253.260 190.333 C 253.370 190.155,252.472 189.968,251.265 189.917 C 250.058 189.867,249.162 189.918,249.275 190.030 M256.503 190.327 C 256.748 190.724,259.047 190.697,259.689 190.290 C 259.994 190.096,259.420 189.979,258.259 189.998 C 257.192 190.015,256.402 190.164,256.503 190.327 M234.381 192.090 C 234.386 192.927,234.471 193.035,234.766 192.578 C 235.260 191.814,235.260 191.016,234.766 191.016 C 234.551 191.016,234.378 191.499,234.381 192.090 M121.974 193.945 C 121.978 194.805,122.058 195.110,122.151 194.624 C 122.245 194.138,122.241 193.435,122.143 193.062 C 122.046 192.688,121.969 193.086,121.974 193.945 M227.344 197.852 C 227.344 200.394,227.456 202.361,227.594 202.224 C 227.884 201.933,227.835 193.720,227.541 193.426 C 227.432 193.318,227.344 195.309,227.344 197.852 M304.395 195.117 C 304.400 195.977,304.480 196.282,304.573 195.796 C 304.667 195.310,304.663 194.607,304.565 194.234 C 304.467 193.860,304.391 194.258,304.395 195.117 M234.496 198.145 C 234.499 198.950,234.659 199.609,234.852 199.609 C 235.045 199.609,235.094 199.434,234.961 199.219 C 234.828 199.004,234.906 198.828,235.133 198.828 C 235.361 198.828,235.544 198.521,235.541 198.145 C 235.536 197.591,235.468 197.566,235.186 198.013 C 234.916 198.439,234.797 198.351,234.663 197.622 C 234.557 197.047,234.492 197.251,234.496 198.145 M314.570 198.828 C 314.570 200.010,314.643 200.493,314.733 199.902 C 314.822 199.312,314.822 198.345,314.733 197.754 C 314.643 197.163,314.570 197.646,314.570 198.828 M173.226 198.854 C 173.033 199.167,173.086 199.240,173.377 199.061 C 173.674 198.877,173.846 199.158,173.881 199.879 C 173.929 200.867,173.952 200.884,174.110 200.053 C 174.315 198.971,173.683 198.115,173.226 198.854 M326.203 198.718 C 326.186 198.980,325.908 199.093,325.586 198.969 C 324.985 198.739,324.751 199.409,325.312 199.756 C 325.829 200.076,326.673 199.347,326.446 198.776 C 326.304 198.420,326.223 198.401,326.203 198.718 M339.355 199.494 C 339.839 199.588,340.630 199.588,341.113 199.494 C 341.597 199.401,341.201 199.325,340.234 199.325 C 339.268 199.325,338.872 199.401,339.355 199.494 M122.030 205.469 C 122.030 208.584,122.091 209.858,122.165 208.301 C 122.239 206.743,122.239 204.194,122.165 202.637 C 122.091 201.079,122.030 202.354,122.030 205.469 M249.023 200.400 C 249.775 200.714,253.425 200.929,253.092 200.640 C 253.003 200.562,251.875 200.403,250.586 200.286 C 249.171 200.158,248.552 200.203,249.023 200.400 M344.072 203.321 C 344.002 205.148,344.077 206.642,344.238 206.642 C 344.399 206.641,344.531 205.146,344.531 203.320 C 344.531 199.030,344.235 199.031,344.072 203.321 M326.765 201.074 C 326.902 201.575,326.832 201.953,326.601 201.953 C 326.379 201.953,326.293 202.205,326.411 202.512 C 326.529 202.820,326.974 203.045,327.400 203.013 C 328.074 202.963,328.096 202.898,327.570 202.513 C 327.237 202.270,327.067 201.970,327.190 201.846 C 327.314 201.722,327.215 201.300,326.970 200.908 C 326.572 200.271,326.551 200.288,326.765 201.074 M261.844 203.906 C 261.844 205.303,261.915 205.874,262.001 205.176 C 262.088 204.478,262.088 203.335,262.001 202.637 C 261.915 201.938,261.844 202.510,261.844 203.906 M235.938 202.344 C 235.938 202.559,236.113 202.756,236.328 202.783 C 236.543 202.810,236.938 202.858,237.207 202.890 C 237.476 202.921,237.643 203.252,237.580 203.625 C 237.516 203.998,237.643 204.609,237.861 204.983 C 238.209 205.580,238.259 205.548,238.269 204.725 C 238.281 203.793,238.288 203.791,239.160 204.521 C 239.644 204.926,239.440 204.608,238.708 203.815 C 237.975 203.023,237.228 202.466,237.047 202.577 C 236.867 202.689,236.719 202.594,236.719 202.367 C 236.719 202.139,236.543 201.953,236.328 201.953 C 236.113 201.953,235.938 202.129,235.938 202.344 M260.224 203.248 C 259.273 204.261,259.156 204.688,259.831 204.688 C 260.081 204.688,260.168 204.569,260.022 204.424 C 259.877 204.278,260.142 203.751,260.611 203.252 C 261.080 202.752,261.376 202.344,261.269 202.344 C 261.162 202.344,260.691 202.751,260.224 203.248 M227.344 205.036 C 227.344 205.729,227.509 206.194,227.710 206.070 C 227.912 205.945,228.005 205.471,227.918 205.017 C 227.659 203.671,227.344 203.681,227.344 205.036 M173.859 205.934 C 173.842 206.297,174.007 206.705,174.225 206.840 C 174.443 206.975,174.504 207.276,174.360 207.509 C 174.200 207.768,174.281 207.820,174.568 207.643 C 174.864 207.460,174.906 207.184,174.681 206.899 C 174.484 206.649,174.226 206.182,174.107 205.859 C 173.930 205.383,173.884 205.397,173.859 205.934 M336.621 207.317 C 337.534 207.400,339.028 207.400,339.941 207.317 C 340.854 207.235,340.107 207.168,338.281 207.168 C 336.455 207.168,335.708 207.235,336.621 207.317 M247.941 207.704 C 248.634 207.790,249.864 207.792,250.675 207.707 C 251.485 207.622,250.918 207.552,249.414 207.550 C 247.910 207.548,247.247 207.618,247.941 207.704 M84.107 213.379 C 84.769 213.987,85.682 214.053,92.328 213.981 L 99.805 213.900 92.149 213.688 C 87.938 213.572,84.238 213.301,83.927 213.086 C 83.616 212.871,83.697 213.003,84.107 213.379 M105.469 222.266 C 105.469 226.992,105.601 230.860,105.762 230.860 C 105.923 230.860,106.004 227.085,105.942 222.471 L 105.830 214.081 112.583 213.964 L 119.336 213.847 112.402 213.760 L 105.469 213.672 105.469 222.266 M293.365 214.355 C 293.362 214.624,293.115 214.844,292.817 214.844 C 291.735 214.844,290.665 216.150,291.058 216.992 C 291.396 217.718,291.410 217.711,291.256 216.895 C 291.164 216.412,291.248 215.918,291.443 215.798 C 291.646 215.672,291.797 217.286,291.797 219.573 C 291.797 221.770,291.667 223.438,291.508 223.279 C 291.349 223.120,291.278 221.816,291.351 220.382 C 291.423 218.947,291.371 217.882,291.236 218.014 C 290.695 218.543,290.787 223.153,291.350 223.716 C 291.832 224.198,291.833 224.350,291.354 224.829 C 290.983 225.200,290.856 225.935,290.972 227.047 C 291.123 228.497,291.182 228.585,291.432 227.734 C 291.633 227.049,291.731 227.486,291.758 229.199 C 291.786 230.960,291.661 231.613,291.309 231.543 C 291.007 231.483,290.816 231.892,290.810 232.617 C 290.796 234.178,291.082 234.694,291.446 233.763 C 291.622 233.313,291.753 234.232,291.769 236.035 C 291.786 237.811,291.635 239.063,291.406 239.063 C 291.191 239.063,291.028 239.458,291.043 239.941 C 291.069 240.780,291.086 240.785,291.406 240.039 C 291.674 239.415,291.747 239.558,291.769 240.746 C 291.786 241.660,291.644 242.139,291.400 241.988 C 291.182 241.853,291.121 241.552,291.265 241.319 C 291.409 241.086,291.348 241.006,291.129 241.141 C 290.910 241.276,290.772 241.787,290.823 242.276 C 291.074 244.682,291.103 244.746,291.406 243.555 L 291.704 242.383 291.751 243.434 C 291.776 244.012,291.621 244.594,291.406 244.727 C 291.191 244.859,291.016 245.573,291.016 246.312 C 291.016 247.051,291.191 247.656,291.406 247.656 C 291.632 247.656,291.797 248.893,291.797 250.586 C 291.797 252.197,291.640 253.516,291.448 253.516 C 291.256 253.516,290.991 253.799,290.858 254.145 C 290.685 254.595,290.784 254.710,291.207 254.548 C 291.662 254.373,291.788 254.609,291.758 255.579 C 291.721 256.775,291.704 256.789,291.406 255.859 C 291.187 255.176,291.096 255.704,291.101 257.617 C 291.106 259.649,291.185 260.050,291.406 259.180 C 291.586 258.472,291.723 260.369,291.751 263.965 C 291.792 269.358,291.862 269.922,292.480 269.928 C 293.059 269.933,293.075 269.990,292.583 270.301 C 292.123 270.592,292.178 270.655,292.849 270.605 C 293.315 270.570,293.619 270.417,293.525 270.265 C 293.431 270.113,293.575 269.900,293.845 269.791 C 294.115 269.682,293.853 269.579,293.262 269.562 L 292.188 269.531 292.188 242.383 L 292.188 215.234 296.647 215.234 C 299.854 215.234,301.160 215.372,301.295 215.723 C 301.398 215.991,301.467 215.859,301.447 215.430 C 301.414 214.696,301.187 214.657,297.725 214.785 C 294.940 214.888,293.958 214.792,293.705 214.394 C 293.458 214.004,293.370 213.994,293.365 214.355 M97.368 214.723 C 97.747 214.822,97.938 215.095,97.792 215.330 C 97.627 215.597,97.754 215.671,98.131 215.527 C 98.462 215.399,98.966 215.501,99.250 215.753 C 99.672 216.127,99.681 216.096,99.301 215.589 C 99.045 215.247,98.951 214.852,99.092 214.710 C 99.233 214.569,98.748 214.474,98.014 214.498 C 97.280 214.523,96.989 214.625,97.368 214.723 M194.953 227.258 C 194.936 227.534,195.229 227.872,195.605 228.011 C 195.981 228.150,196.437 228.452,196.619 228.682 C 196.815 228.931,196.854 228.811,196.717 228.386 C 196.589 227.992,196.484 227.488,196.484 227.264 C 196.484 227.005,196.285 227.023,195.936 227.312 C 195.516 227.661,195.341 227.650,195.186 227.262 C 195.023 226.856,194.978 226.856,194.953 227.258 M245.117 229.713 L 243.164 229.955 245.191 230.017 L 247.218 230.078 247.372 231.543 L 247.525 233.008 247.591 231.371 C 247.668 229.430,247.627 229.402,245.117 229.713 M310.156 229.785 C 310.156 229.946,311.431 230.054,312.988 230.025 C 315.971 229.969,315.645 229.794,312.207 229.605 C 311.079 229.543,310.156 229.624,310.156 229.785 M264.746 229.963 C 265.229 230.056,266.021 230.056,266.504 229.963 C 266.987 229.870,266.592 229.794,265.625 229.794 C 264.658 229.794,264.263 229.870,264.746 229.963 M271.191 229.957 C 271.567 230.055,272.183 230.055,272.559 229.957 C 272.935 229.859,272.627 229.778,271.875 229.778 C 271.123 229.778,270.815 229.859,271.191 229.957 M229.395 230.760 L 233.984 230.884 233.984 233.867 C 233.984 235.507,234.106 236.728,234.254 236.579 C 234.402 236.431,234.477 235.435,234.420 234.366 C 234.346 232.963,234.461 232.420,234.834 232.416 C 235.218 232.411,235.200 232.312,234.766 232.031 C 234.271 231.712,234.268 231.652,234.743 231.647 C 235.146 231.642,235.091 231.478,234.547 231.067 C 233.968 230.629,232.728 230.510,229.297 230.565 L 224.805 230.637 229.395 230.760 M319.618 230.798 C 319.255 231.028,319.385 231.236,320.092 231.558 C 320.721 231.845,321.150 231.865,321.304 231.616 C 321.435 231.404,321.398 231.256,321.220 231.287 C 320.430 231.424,319.896 231.217,320.117 230.859 C 320.407 230.390,320.284 230.375,319.618 230.798 M237.040 231.518 C 237.425 231.672,237.326 231.988,236.650 232.757 L 235.742 233.789 236.804 232.853 C 237.840 231.941,237.925 231.219,236.989 231.281 C 236.681 231.301,236.698 231.382,237.040 231.518 M225.181 250.391 C 225.181 260.811,225.231 265.073,225.293 259.863 C 225.354 254.653,225.354 246.128,225.293 240.918 C 225.231 235.708,225.181 239.971,225.181 250.391 M322.922 232.576 C 322.807 232.875,323.183 233.534,323.759 234.040 L 324.805 234.961 323.976 233.984 C 323.519 233.447,323.226 232.788,323.324 232.520 C 323.422 232.251,323.419 232.031,323.317 232.031 C 323.214 232.031,323.036 232.276,322.922 232.576 M145.077 237.891 C 145.077 241.006,145.138 242.280,145.212 240.723 C 145.286 239.165,145.286 236.616,145.212 235.059 C 145.138 233.501,145.077 234.775,145.077 237.891 M301.293 234.474 C 301.296 235.281,301.320 235.896,301.346 235.842 C 301.372 235.787,301.651 235.401,301.966 234.984 C 302.281 234.566,302.332 234.349,302.079 234.501 C 301.792 234.673,301.556 234.444,301.452 233.893 C 301.361 233.406,301.289 233.668,301.293 234.474 M59.539 241.992 C 59.539 246.289,59.596 248.100,59.666 246.017 C 59.736 243.934,59.736 240.418,59.667 238.204 C 59.597 235.991,59.539 237.695,59.539 241.992 M246.875 237.109 C 246.875 238.525,246.781 238.672,245.875 238.672 C 245.326 238.672,244.970 238.824,245.085 239.010 C 245.776 240.128,247.266 238.932,247.266 237.259 C 247.266 236.317,247.178 235.547,247.070 235.547 C 246.963 235.547,246.875 236.250,246.875 237.109 M82.206 237.012 C 95.027 237.093,99.055 237.232,99.290 237.602 C 99.507 237.944,99.599 237.885,99.603 237.402 C 99.609 236.760,98.573 236.724,82.520 236.812 L 65.430 236.905 82.206 237.012 M105.469 243.164 L 105.469 249.609 107.910 249.536 L 110.352 249.462 108.079 249.320 L 105.807 249.178 105.931 243.241 L 106.055 237.305 122.559 237.203 L 139.063 237.101 139.024 243.257 C 139.000 246.949,138.859 249.023,138.672 248.438 C 138.385 247.540,138.356 247.530,138.320 248.307 C 138.299 248.773,138.062 249.242,137.793 249.351 C 137.524 249.459,137.788 249.562,138.379 249.579 L 139.453 249.609 139.453 243.164 L 139.453 236.719 122.461 236.719 L 105.469 236.719 105.469 243.164 M266.602 237.510 C 266.080 237.741,266.404 237.779,267.578 237.624 C 268.545 237.496,269.409 237.328,269.499 237.250 C 269.838 236.956,267.348 237.180,266.602 237.510 M65.707 243.457 L 65.625 249.609 69.434 249.536 L 73.242 249.462 69.727 249.243 L 66.211 249.023 66.000 243.164 L 65.788 237.305 65.707 243.457 M309.277 237.776 C 309.761 237.869,310.552 237.869,311.035 237.776 C 311.519 237.683,311.123 237.606,310.156 237.606 C 309.189 237.606,308.794 237.683,309.277 237.776 M313.086 238.281 C 313.547 238.480,313.641 238.628,313.314 238.644 C 313.009 238.660,312.852 238.764,312.965 238.876 C 313.077 238.989,313.473 238.964,313.844 238.822 C 314.618 238.525,313.939 237.886,312.891 237.924 C 312.504 237.938,312.571 238.060,313.086 238.281 M273.242 239.063 C 272.998 239.458,273.047 239.498,273.926 239.617 C 274.194 239.654,274.355 239.940,274.284 240.252 C 274.212 240.565,274.284 240.690,274.443 240.531 C 274.602 240.371,275.013 240.453,275.355 240.711 C 275.697 240.970,275.460 240.617,274.829 239.926 C 273.536 238.512,273.571 238.531,273.242 239.063 M314.974 238.924 C 315.115 239.170,314.967 239.472,314.646 239.595 C 314.325 239.718,314.063 240.022,314.063 240.270 C 314.063 240.609,314.199 240.608,314.610 240.266 C 315.031 239.917,315.205 239.928,315.361 240.316 C 315.525 240.724,315.569 240.722,315.594 240.309 C 315.611 240.028,315.797 239.904,316.008 240.034 C 316.248 240.183,316.212 240.558,315.910 241.046 C 315.409 241.854,316.087 242.729,316.992 242.442 C 317.593 242.251,317.455 241.196,316.847 241.325 C 316.520 241.394,316.395 241.219,316.525 240.878 C 316.645 240.565,316.293 239.910,315.729 239.397 C 315.173 238.891,314.833 238.678,314.974 238.924 M285.842 243.555 C 285.739 244.092,285.807 244.531,285.992 244.531 C 286.177 244.531,286.328 244.092,286.328 243.555 C 286.328 243.018,286.261 242.578,286.178 242.578 C 286.096 242.578,285.945 243.018,285.842 243.555 M327.343 256.133 C 327.236 263.696,327.283 269.749,327.447 269.585 C 327.611 269.421,327.698 263.233,327.642 255.835 L 327.538 242.383 327.343 256.133 M99.154 245.546 C 99.082 246.964,99.129 248.188,99.258 248.267 C 99.386 248.346,99.527 247.186,99.571 245.690 C 99.672 242.231,99.329 242.113,99.154 245.546 M276.661 243.750 C 276.757 244.111,277.332 244.357,278.155 244.391 C 279.380 244.441,279.394 244.430,278.322 244.258 C 277.678 244.155,277.005 243.866,276.827 243.617 C 276.608 243.311,276.554 243.354,276.661 243.750 M144.999 246.582 L 144.922 249.609 147.363 249.536 L 149.805 249.462 147.575 249.321 L 145.346 249.181 145.212 246.368 L 145.077 243.555 144.999 246.582 M318.067 245.508 C 318.072 246.367,318.152 246.673,318.245 246.187 C 318.338 245.701,318.335 244.998,318.237 244.624 C 318.139 244.251,318.063 244.648,318.067 245.508 M179.145 245.474 C 179.342 245.993,179.291 246.136,178.977 245.942 C 178.675 245.756,178.607 245.878,178.774 246.312 C 179.004 246.912,179.051 246.911,179.396 246.294 C 179.646 245.847,179.619 245.479,179.314 245.177 C 178.970 244.835,178.929 244.907,179.145 245.474 M188.281 246.843 C 188.281 247.040,188.175 247.480,188.044 247.820 C 187.883 248.241,188.038 248.450,188.532 248.476 C 189.070 248.505,189.005 248.596,188.281 248.828 C 187.488 249.082,187.635 249.140,189.063 249.134 C 190.029 249.131,190.513 249.048,190.137 248.949 C 189.761 248.851,189.453 248.411,189.453 247.970 C 189.453 247.323,189.347 247.258,188.898 247.631 C 188.442 248.009,188.380 247.947,188.553 247.288 C 188.668 246.846,188.655 246.484,188.522 246.484 C 188.390 246.484,188.281 246.646,188.281 246.843 M258.684 247.656 C 258.684 248.408,258.765 248.716,258.863 248.340 C 258.961 247.964,258.961 247.349,258.863 246.973 C 258.765 246.597,258.684 246.904,258.684 247.656 M234.156 258.594 C 234.156 264.717,234.210 267.222,234.276 264.160 C 234.342 261.099,234.342 256.089,234.276 253.027 C 234.210 249.966,234.156 252.471,234.156 258.594 M248.825 250.861 C 248.719 252.731,248.773 254.121,248.943 253.949 C 249.114 253.777,249.200 252.247,249.135 250.549 L 249.017 247.461 248.825 250.861 M91.198 250.000 C 90.495 250.961,90.495 250.966,91.241 250.318 C 91.670 249.945,92.843 249.605,93.948 249.532 L 95.898 249.404 93.906 249.214 C 92.119 249.043,91.839 249.125,91.198 250.000 M54.016 249.506 C 55.043 249.587,56.625 249.586,57.531 249.504 C 58.438 249.422,57.598 249.356,55.664 249.357 C 53.730 249.359,52.989 249.426,54.016 249.506 M150.688 249.495 C 151.174 249.588,151.877 249.585,152.251 249.487 C 152.624 249.389,152.227 249.313,151.367 249.317 C 150.508 249.322,150.202 249.402,150.688 249.495 M258.715 251.367 C 258.717 252.656,258.790 253.137,258.877 252.434 C 258.964 251.732,258.962 250.678,258.873 250.091 C 258.784 249.504,258.713 250.078,258.715 251.367 M74.019 250.397 C 74.447 250.931,74.833 251.431,74.877 251.509 C 74.922 251.587,74.931 251.287,74.897 250.842 C 74.864 250.397,74.757 250.112,74.661 250.209 C 74.565 250.305,74.206 250.169,73.864 249.906 C 73.487 249.616,73.549 249.810,74.019 250.397 M290.916 250.098 C 290.815 250.366,290.872 250.938,291.042 251.367 C 291.294 252.003,291.356 251.913,291.379 250.879 C 291.407 249.559,291.230 249.260,290.916 250.098 M154.688 260.547 C 154.688 265.560,154.788 269.561,154.911 269.438 C 155.176 269.173,155.135 251.879,154.869 251.614 C 154.769 251.514,154.688 255.534,154.688 260.547 M114.621 260.742 C 114.621 265.684,114.677 267.651,114.745 265.115 C 114.813 262.578,114.813 258.535,114.745 256.130 C 114.676 253.725,114.620 255.801,114.621 260.742 M129.854 261.523 C 129.854 266.250,129.911 268.130,129.979 265.701 C 130.048 263.272,130.048 259.405,129.979 257.107 C 129.910 254.810,129.854 256.797,129.854 261.523 M50.112 256.836 C 50.115 257.910,50.191 258.303,50.280 257.709 C 50.370 257.116,50.368 256.237,50.275 255.756 C 50.182 255.276,50.109 255.762,50.112 256.836 M56.250 260.938 L 56.250 266.406 62.891 266.406 L 69.531 266.406 69.531 260.938 L 69.531 255.469 62.891 255.469 L 56.250 255.469 56.250 260.938 M96.094 260.938 L 96.094 266.406 102.539 266.406 L 108.984 266.406 108.984 260.938 L 108.984 255.469 102.539 255.469 L 96.094 255.469 96.094 260.938 M135.938 260.938 L 135.938 266.406 142.578 266.406 L 149.219 266.406 149.219 260.938 L 149.219 255.469 142.578 255.469 L 135.938 255.469 135.938 260.938 M276.953 256.152 C 276.953 256.313,279.150 256.445,281.836 256.445 C 284.521 256.445,286.719 256.313,286.719 256.152 C 286.719 255.991,284.521 255.859,281.836 255.859 C 279.150 255.859,276.953 255.991,276.953 256.152 M50.146 263.086 C 50.147 265.449,50.211 266.366,50.289 265.122 C 50.367 263.879,50.366 261.946,50.287 260.826 C 50.209 259.705,50.145 260.723,50.146 263.086 M206.836 259.488 C 206.295 260.143,206.287 261.719,206.824 261.719 C 207.068 261.719,207.266 261.107,207.266 260.352 C 207.266 259.600,207.257 258.991,207.246 258.999 C 207.235 259.007,207.051 259.227,206.836 259.488 M272.535 259.826 C 272.172 260.029,271.875 260.375,271.875 260.594 C 271.875 260.814,272.144 260.725,272.472 260.396 C 272.801 260.068,273.328 259.898,273.644 260.019 C 273.960 260.141,274.219 260.152,274.219 260.045 C 274.219 259.616,273.156 259.478,272.535 259.826 M250.020 260.156 C 250.028 260.763,251.134 262.932,251.158 262.389 C 251.166 262.220,251.567 262.274,252.051 262.508 C 252.789 262.866,252.836 262.852,252.344 262.422 C 252.021 262.141,251.701 261.654,251.632 261.339 C 251.403 260.301,250.808 259.468,250.787 260.156 C 250.771 260.677,250.727 260.677,250.391 260.156 C 250.054 259.635,250.013 259.635,250.020 260.156 M291.114 264.648 C 291.118 265.508,291.198 265.813,291.292 265.327 C 291.385 264.842,291.382 264.138,291.284 263.765 C 291.186 263.392,291.110 263.789,291.114 264.648 M281.669 265.401 C 280.708 266.392,280.527 266.782,280.923 267.011 C 281.210 267.177,281.312 267.166,281.149 266.986 C 280.798 266.600,282.395 264.781,282.842 265.057 C 283.011 265.162,283.252 265.081,283.378 264.877 C 283.995 263.879,282.784 264.250,281.669 265.401 M257.001 267.285 C 256.667 268.379,256.756 268.750,257.254 268.337 C 257.556 268.086,257.708 267.724,257.590 267.534 C 257.388 267.207,257.067 267.071,257.001 267.285 M170.176 269.349 C 170.375 269.868,171.877 270.429,171.872 269.983 C 171.870 269.842,171.445 269.530,170.928 269.290 C 170.191 268.949,170.028 268.961,170.176 269.349 M267.081 270.594 C 267.775 270.681,269.005 270.682,269.816 270.598 C 270.626 270.513,270.059 270.442,268.555 270.441 C 267.051 270.439,266.388 270.508,267.081 270.594 M73.438 271.712 C 72.740 272.100,72.649 272.256,73.121 272.260 C 73.485 272.263,73.892 272.087,74.027 271.869 C 74.162 271.650,74.464 271.590,74.697 271.734 C 74.950 271.890,75.008 271.814,74.842 271.545 C 74.689 271.297,74.530 271.111,74.489 271.132 C 74.448 271.153,73.975 271.414,73.438 271.712 M129.908 271.525 C 130.031 271.725,130.284 271.794,130.469 271.680 C 130.654 271.565,130.916 271.650,131.051 271.869 C 131.186 272.087,131.593 272.254,131.957 272.241 C 132.405 272.224,132.303 272.080,131.641 271.792 C 130.270 271.197,129.646 271.101,129.908 271.525 "
              stroke="none" fill="#84aa56" fill-rule="evenodd"/>
    </g>
</svg>